<svg class="svg__anim" width="175" height="115" viewBox="0 0 175 115" fill="none"
xmlns="http://www.w3.org/2000/svg">
<path
    d="M29.8655 114.742C20.5911 114.742 13.2736 112.635 7.91309 108.421C2.6377 104.208 0 99.1767 0 93.329C0 88.5992 1.44648 84.8584 4.33944 82.1065C7.2324 79.2686 10.5933 77.8497 14.4222 77.8497C17.4003 77.8497 19.8253 78.7527 21.6972 80.5586C23.5691 82.2785 24.5051 84.3424 24.5051 86.7503C24.5051 89.3302 23.3989 92.2111 21.1867 95.3929C19.0595 98.5748 17.9959 101.198 17.9959 103.262C17.9959 105.325 18.8893 106.959 20.6761 108.163C22.463 109.367 24.5476 109.969 26.93 109.969C32.8861 109.969 37.7361 107.647 41.4799 103.004C45.3088 98.3598 47.2233 92.77 47.2233 86.2343C47.2233 79.1826 44.5856 72.9909 39.3102 67.6592C34.1199 62.2414 26.7599 59.5325 17.2301 59.5325V55.7917C22.0801 55.7917 26.377 55.0178 30.1208 53.4698C33.8646 51.8359 36.715 49.729 38.672 47.1491C40.7141 44.5692 42.2032 41.9034 43.1391 39.1515C44.1602 36.3996 44.6707 33.6477 44.6707 30.8959C44.6707 25.5641 43.3093 21.0063 40.5865 17.2225C37.8637 13.3527 34.2475 11.4178 29.7379 11.4178C26.7599 11.4178 24.2498 12.0627 22.2077 13.3527C20.1656 14.6426 19.1446 16.3625 19.1446 18.5124C19.1446 20.6623 20.3358 23.1562 22.7182 25.9941C25.1858 28.832 26.4195 31.4548 26.4195 33.8627C26.4195 36.3566 25.4836 38.3775 23.6116 39.9254C21.7397 41.3874 19.3573 42.1183 16.4643 42.1183C13.0609 42.1183 10.1254 40.8714 7.65783 38.3775C5.19031 35.8836 3.95655 32.3148 3.95655 27.671C3.95655 22.2533 6.42407 17.5235 11.3591 13.4817C16.2942 9.35385 23.1011 7.28994 31.78 7.28994C41.2247 7.28994 48.7123 9.65483 54.243 14.3846C59.7736 19.1144 62.539 24.8331 62.539 31.5408C62.539 38.8505 59.9012 44.5692 54.6259 48.697C49.3505 52.8249 42.8838 55.4047 35.226 56.4367V57.7266C44.0751 57.7266 51.6904 60.3065 58.0719 65.4663C64.4534 70.54 67.6442 77.0327 67.6442 84.9444C67.6442 93.458 64.1981 100.553 57.3061 106.228C50.414 111.904 41.2672 114.742 29.8655 114.742Z"
    fill="#F8F8F8" />
<path
    d="M115.432 92.684C115.432 97.4138 116.41 101.026 118.367 103.52C120.324 105.927 122.792 107.131 125.77 107.131C127.301 107.131 128.62 106.787 129.726 106.099V110.614C126.068 113.538 121.516 115 116.07 115C109.433 115 103.86 113.022 99.3504 109.066C94.9258 105.024 92.7136 99.9507 92.7136 93.845C92.7136 89.2872 93.6921 84.8584 95.6491 80.5586C97.6061 76.1728 100.074 72.346 103.052 69.0781C106.03 65.8103 109.348 62.4134 113.007 58.8876C116.666 55.3617 120.154 52.1369 123.473 49.213C126.791 46.2032 129.812 42.8493 132.534 39.1515C135.342 35.3677 137.257 31.6698 138.278 28.058C135.129 32.2718 131.258 34.3787 126.663 34.3787C123.941 34.3787 119.559 33.5617 113.517 31.9278C107.476 30.2079 102.414 29.3479 98.3293 29.3479C95.5215 29.3479 93.0114 29.9929 90.7991 31.2828C88.5869 32.5728 87.1404 34.3787 86.4597 36.7006H83.2689C78.7593 32.4868 76.5045 27.413 76.5045 21.4793C76.5045 17.4375 77.9084 14.0406 80.7163 11.2888C83.6093 8.45089 87.3106 7.03195 91.8202 7.03195C94.9684 7.03195 97.9464 7.80592 100.754 9.35385C103.562 10.8158 106.03 12.6217 108.157 14.7716C110.284 16.9215 112.326 19.0714 114.283 21.2213C116.325 23.3712 118.58 25.2201 121.048 26.768C123.515 28.23 126.068 28.961 128.705 28.961C131.343 28.961 133.555 28.015 135.342 26.1231H134.959C132.832 26.1231 130.45 24.9621 127.812 22.6402C125.174 20.2323 123.855 17.5235 123.855 14.5136C123.855 11.7617 124.621 9.65483 126.153 8.1929C127.769 6.73097 129.641 6 131.769 6C134.917 6 137.554 7.37594 139.682 10.1278C141.894 12.7937 143 16.5345 143 21.3503C143 25.4781 142.064 29.8639 140.192 34.5077C138.32 39.1515 136.023 43.6233 133.3 47.9231C130.577 52.2229 127.855 56.6517 125.132 61.2095C122.409 65.6813 120.112 70.669 118.24 76.1728C116.368 81.6765 115.432 87.1803 115.432 92.684Z"
    fill="#F8F8F8" />
<path d="M175 10.9375V14.9671H163.736V25H159.35V14.9671H148V10.9375H159.35V0H163.736V10.9375H175Z"
    fill="white" />
</svg>