<svg width="421" height="900" viewBox="0 0 421 900" fill="none" xmlns="http://www.w3.org/2000/svg">
<g clip-path="url(#clip0_1613_5132)">
<line y1="-0.165" x2="1030" y2="-0.165" transform="matrix(3.93394e-06 1 1 -4.85693e-10 0 0)" stroke="#2B2B2B" stroke-width="0.33" stroke-dasharray="1 1"/>
<line y1="-0.165" x2="1030" y2="-0.165" transform="matrix(3.93394e-06 1 1 -4.85693e-10 4.00391 0)" stroke="#2B2B2B" stroke-width="0.33" stroke-dasharray="1 1"/>
<line y1="-0.165" x2="1030" y2="-0.165" transform="matrix(3.93394e-06 1 1 -4.85693e-10 32.0078 0)" stroke="#2B2B2B" stroke-width="0.33" stroke-dasharray="1 1"/>
<line y1="-0.165" x2="1030" y2="-0.165" transform="matrix(3.93394e-06 1 1 -4.85693e-10 36.0117 0)" stroke="#2B2B2B" stroke-width="0.33" stroke-dasharray="1 1"/>
<line y1="-0.165" x2="1030" y2="-0.165" transform="matrix(3.93394e-06 1 1 -4.85693e-10 64.0166 0)" stroke="#2B2B2B" stroke-width="0.33" stroke-dasharray="1 1"/>
<line y1="-0.165" x2="1030" y2="-0.165" transform="matrix(3.93394e-06 1 1 -4.85693e-10 68.0205 0)" stroke="#2B2B2B" stroke-width="0.33" stroke-dasharray="1 1"/>
<line y1="-0.165" x2="1030" y2="-0.165" transform="matrix(3.93394e-06 1 1 -4.85693e-10 96.0244 0)" stroke="#2B2B2B" stroke-width="0.33" stroke-dasharray="1 1"/>
<line y1="-0.165" x2="1030" y2="-0.165" transform="matrix(3.93394e-06 1 1 -4.85693e-10 100.028 0)" stroke="#2B2B2B" stroke-width="0.33" stroke-dasharray="1 1"/>
<line y1="-0.165" x2="1030" y2="-0.165" transform="matrix(3.93394e-06 1 1 -4.85693e-10 128.032 0)" stroke="#2B2B2B" stroke-width="0.33" stroke-dasharray="1 1"/>
<line y1="-0.165" x2="1030" y2="-0.165" transform="matrix(3.93394e-06 1 1 -4.85693e-10 132.036 0)" stroke="#2B2B2B" stroke-width="0.33" stroke-dasharray="1 1"/>
<line y1="-0.165" x2="1030" y2="-0.165" transform="matrix(3.93394e-06 1 1 -4.85693e-10 160.041 0)" stroke="#2B2B2B" stroke-width="0.33" stroke-dasharray="1 1"/>
<line y1="-0.165" x2="1030" y2="-0.165" transform="matrix(3.93394e-06 1 1 -4.85693e-10 164.045 0)" stroke="#2B2B2B" stroke-width="0.33" stroke-dasharray="1 1"/>
<line y1="-0.165" x2="1030" y2="-0.165" transform="matrix(3.93394e-06 1 1 -4.85693e-10 192.049 0)" stroke="#2B2B2B" stroke-width="0.33" stroke-dasharray="1 1"/>
<line y1="-0.165" x2="1030" y2="-0.165" transform="matrix(3.93394e-06 1 1 -4.85693e-10 196.053 0)" stroke="#2B2B2B" stroke-width="0.33" stroke-dasharray="1 1"/>
<line y1="-0.165" x2="1030" y2="-0.165" transform="matrix(3.93394e-06 1 1 -4.85693e-10 224.057 0)" stroke="#2B2B2B" stroke-width="0.33" stroke-dasharray="1 1"/>
<line y1="-0.165" x2="1030" y2="-0.165" transform="matrix(3.93394e-06 1 1 -4.85693e-10 228.061 0)" stroke="#2B2B2B" stroke-width="0.33" stroke-dasharray="1 1"/>
<line y1="-0.165" x2="1030" y2="-0.165" transform="matrix(3.93394e-06 1 1 -4.85693e-10 256.064 0)" stroke="#2B2B2B" stroke-width="0.33" stroke-dasharray="1 1"/>
<line y1="-0.165" x2="1030" y2="-0.165" transform="matrix(3.93394e-06 1 1 -4.85693e-10 260.068 0)" stroke="#2B2B2B" stroke-width="0.33" stroke-dasharray="1 1"/>
<line y1="-0.165" x2="1030" y2="-0.165" transform="matrix(3.93394e-06 1 1 -4.85693e-10 288.073 0)" stroke="#2B2B2B" stroke-width="0.33" stroke-dasharray="1 1"/>
<line y1="-0.165" x2="1030" y2="-0.165" transform="matrix(3.93394e-06 1 1 -4.85693e-10 292.077 0)" stroke="#2B2B2B" stroke-width="0.33" stroke-dasharray="1 1"/>
<line y1="-0.165" x2="1030" y2="-0.165" transform="matrix(3.93394e-06 1 1 -4.85693e-10 320.081 0)" stroke="#2B2B2B" stroke-width="0.33" stroke-dasharray="1 1"/>
<line y1="-0.165" x2="1030" y2="-0.165" transform="matrix(3.93394e-06 1 1 -4.85693e-10 324.085 0)" stroke="#2B2B2B" stroke-width="0.33" stroke-dasharray="1 1"/>
<line y1="-0.165" x2="1030" y2="-0.165" transform="matrix(3.93394e-06 1 1 -4.85693e-10 352.089 0)" stroke="#2B2B2B" stroke-width="0.33" stroke-dasharray="1 1"/>
<line y1="-0.165" x2="1030" y2="-0.165" transform="matrix(3.93394e-06 1 1 -4.85693e-10 356.093 0)" stroke="#2B2B2B" stroke-width="0.33" stroke-dasharray="1 1"/>
<line y1="-0.165" x2="1030" y2="-0.165" transform="matrix(3.93394e-06 1 1 -4.85693e-10 384.098 0)" stroke="#2B2B2B" stroke-width="0.33" stroke-dasharray="1 1"/>
<line y1="-0.165" x2="1030" y2="-0.165" transform="matrix(3.93394e-06 1 1 -4.85693e-10 388.102 0)" stroke="#2B2B2B" stroke-width="0.33" stroke-dasharray="1 1"/>
<line y1="-0.165" x2="1030" y2="-0.165" transform="matrix(3.93394e-06 1 1 -4.85693e-10 416.105 0)" stroke="#2B2B2B" stroke-width="0.33" stroke-dasharray="1 1"/>
<line y1="-0.165" x2="1030" y2="-0.165" transform="matrix(3.93394e-06 1 1 -4.85693e-10 420.109 0)" stroke="#2B2B2B" stroke-width="0.33" stroke-dasharray="1 1"/>
</g>
<defs>
<clipPath id="clip0_1613_5132">
<rect width="420.113" height="900" fill="white"/>
</clipPath>
</defs>
</svg>
