<svg width="162" height="113" viewBox="0 0 162 113" fill="none" xmlns="http://www.w3.org/2000/svg">
    <path
        d="M36.5893 106.496H48.5564V110.561H0V106.496H16.2313V11.3813L2.20086 15.717L0.825322 11.7878L30.6745 2.16787H36.5893V106.496Z"
        fill="#F8F8F8" />
    <path
        d="M128.624 84.9532C129.541 88.1147 130 90.8697 130 93.2182C130 99.6315 127.937 104.554 123.81 107.987C119.683 111.329 114.869 113 109.367 113C105.791 113 102.535 112.368 99.6006 111.103C96.6662 109.929 94.1443 108.438 92.0352 106.632C89.926 104.825 87.9544 102.974 86.1204 101.077C84.2863 99.1799 82.2689 97.4185 80.068 95.7926C77.8672 94.0763 75.5746 92.9472 73.1904 92.4053C78.1423 96.1087 80.6182 100.309 80.6182 105.006C80.6182 107.355 79.7471 109.251 78.0047 110.697C76.3541 112.232 74.2449 113 71.6773 113C68.4677 113 65.7624 111.826 63.5616 109.477C61.3607 107.129 60.2603 104.238 60.2603 100.806C60.2603 96.0184 61.7275 90.9149 64.662 85.4952C67.6882 79.9852 71.3104 74.7462 75.5288 69.7782C79.7471 64.8102 83.9654 59.797 88.1837 54.7386C92.402 49.6803 95.9784 44.3961 98.9129 38.8861C101.939 33.2858 103.452 27.9564 103.452 22.8981C103.452 17.7494 102.031 13.3685 99.188 9.7554C96.4369 6.05196 92.7688 4.20024 88.1837 4.20024C85.0658 4.20024 82.2689 5.05836 79.7929 6.77458C77.4087 8.40048 76.2165 10.6135 76.2165 13.4137C76.2165 15.4009 77.6379 17.8849 80.4807 20.8657C83.3235 23.8465 84.7449 26.6467 84.7449 29.2662C84.7449 31.8857 83.6903 34.0536 81.5811 35.7698C79.472 37.3957 76.996 38.2086 74.1532 38.2086C70.3017 38.2086 67.138 36.8989 64.662 34.2794C62.2778 31.5695 61.0856 28.0016 61.0856 23.5755C61.0856 17.3429 64.0201 11.8781 69.8891 7.18106C75.758 2.39369 83.1401 0 92.0352 0C96.1618 0 100.197 0.496802 104.14 1.4904C108.083 2.48401 111.797 4.01959 115.282 6.09712C118.766 8.08434 121.563 10.8845 123.673 14.4976C125.873 18.1107 126.974 22.311 126.974 27.0983C126.974 32.1567 125.461 36.8989 122.435 41.3249C119.408 45.6607 115.465 49.5448 110.605 52.9772C105.836 56.4097 100.93 59.7518 95.8867 63.0036C90.8431 66.1651 85.8911 69.8685 81.0309 74.1139C76.1707 78.269 72.5484 82.5596 70.1642 86.9856C81.5353 89.7858 93.4566 91.1859 105.928 91.1859C112.256 91.1859 116.978 90.7342 120.096 89.8309C123.214 88.9277 125.094 87.3018 125.736 84.9532H128.624Z"
        fill="#F8F8F8" />
    <path d="M162 10.9375V14.9671H150.736V25H146.35V14.9671H135V10.9375H146.35V0H150.736V10.9375H162Z"
        fill="white" />
</svg>