<svg width="33" height="34" viewBox="0 0 33 34" fill="none" xmlns="http://www.w3.org/2000/svg">
<path d="M26.1184 5.92241L26.083 5.88705L26.0477 5.92241C23.3769 8.59312 20.1612 9.28956 17.1245 9.14055C14.0868 8.9915 11.2738 7.93984 9.80529 7.18424L9.76082 7.16136L9.73795 7.20583L8.79532 9.03872L8.77246 9.08317L8.81691 9.10604C10.5412 9.99323 13.5624 11.1293 17.0189 11.2989C18.3185 11.3627 19.6841 11.218 21.0499 10.9202L4.3914 27.5787L4.35605 27.614L4.3914 27.6494L5.84965 29.1076L5.88501 29.143L5.92037 29.1076L22.5788 12.4492C22.281 13.8149 22.1363 15.1805 22.2001 16.4802C22.3697 19.9366 23.5058 22.9579 24.393 24.6821L24.4159 24.7266L24.4603 24.7037L26.2932 23.7611L26.3377 23.7382L26.3148 23.6937C25.5592 22.2252 24.5075 19.4122 24.3585 16.3746C24.2095 13.3379 24.9059 10.1221 27.5766 7.45137L27.612 7.41602L27.5766 7.38066L26.1184 5.92241Z" fill="#B80E45" stroke="#B80E45" stroke-width="0.1"/>
</svg>
