<svg width="240" height="214" viewBox="0 0 240 214" fill="none" xmlns="http://www.w3.org/2000/svg">
<g clip-path="url(#clip0_1571_1396)">
<path d="M23 122.453C23.395 120.874 23.7798 119.351 24.1646 117.824C25.8582 111.086 27.5518 104.35 29.2454 97.6184C29.3223 97.3051 29.3825 96.9881 29.4259 96.6686C29.5246 95.9788 29.2794 95.6388 28.5779 95.4855C28.3259 95.4322 28.0671 95.4055 27.8117 95.3722C27.5563 95.3389 27.3316 95.3189 27.0558 95.2889L27.478 93.6559C28.3941 93.5826 29.2658 93.5259 30.1376 93.4326C31.6598 93.266 33.0015 92.7428 33.9686 91.503C34.0496 91.392 34.1719 91.3166 34.3091 91.2931C34.9902 91.2731 35.6713 91.2931 36.383 91.2931C35.1741 96.1754 33.9618 101.018 31.779 105.59L32.2251 105.747C32.5656 105.08 32.9061 104.434 33.2467 103.794C33.989 102.437 34.837 101.158 36.0765 100.171C37.1931 99.285 38.6003 98.8256 40.0369 98.8782C41.4195 98.9015 42.7169 99.2114 43.7998 100.105C44.9951 101.104 45.5944 102.437 45.8668 103.887C46.3981 106.777 45.8668 109.586 45.1347 112.375C44.6754 114.306 43.926 116.159 42.911 117.874C41.1641 120.707 38.6612 122.443 35.2728 122.833C33.1241 123.08 31.057 122.783 29.1841 121.627C28.8095 121.397 28.4179 121.184 28.0229 120.984C27.0013 120.454 26.4087 120.537 25.5812 121.317C25.5289 121.365 25.48 121.416 25.4348 121.47C25.2033 121.777 24.9785 122.083 24.7537 122.387C24.7196 122.412 24.6774 122.425 24.6346 122.423H23M40.8406 105.623C40.8536 104.713 40.6919 103.809 40.3638 102.957C40.1695 102.417 39.795 101.957 39.3007 101.651C38.8064 101.346 38.2212 101.211 37.6395 101.271C36.7357 101.357 35.8969 101.769 35.2865 102.427C33.8903 103.74 33.0628 105.407 32.5111 107.166C31.7279 109.673 31.0877 112.222 30.4373 114.765C30.1501 115.833 29.9497 116.922 29.8379 118.021C29.7706 118.681 29.9424 119.343 30.3234 119.891C30.7044 120.439 31.2703 120.839 31.922 121.02C32.5832 121.224 33.2853 121.268 33.9676 121.147C34.6499 121.027 35.2919 120.745 35.8381 120.327C37.054 119.362 37.9305 118.049 38.3445 116.571C38.9983 114.572 39.5363 112.505 40.0982 110.462C40.5611 108.888 40.8107 107.261 40.8406 105.623Z" fill="#010101"/>
<path d="M130.802 117.328L131.565 117.885C130.612 119.814 129.563 121.631 127.435 122.507C126.81 122.785 126.133 122.933 125.447 122.943C124.761 122.953 124.08 122.824 123.447 122.564C122.122 122.004 121.506 120.897 121.339 119.544C121.148 118.055 121.043 116.545 120.903 115.059C120.764 113.492 120.631 111.926 120.481 110.25C120.334 110.42 120.246 110.513 120.168 110.613C119.146 111.909 118.097 113.202 117.072 114.505C116.928 114.695 116.826 114.912 116.772 115.142C116.182 117.428 115.603 119.718 115.036 122.011C114.954 122.344 114.825 122.454 114.464 122.447C112.798 122.427 111.133 122.447 109.41 122.447C109.468 122.207 109.516 122.011 109.567 121.811C111.63 113.721 113.693 105.633 115.754 97.5457C115.841 97.1916 115.89 96.8298 115.901 96.4659C115.92 96.3606 115.917 96.2524 115.892 96.1483C115.866 96.0442 115.819 95.9464 115.753 95.861C115.687 95.7755 115.604 95.7043 115.509 95.6519C115.413 95.5994 115.308 95.5668 115.199 95.5561C114.644 95.4294 114.072 95.3695 113.452 95.2695C113.578 94.7729 113.691 94.2697 113.851 93.7831C113.878 93.6965 114.092 93.6398 114.229 93.6232C115.339 93.4998 116.459 93.4332 117.566 93.2666C118.702 93.0752 119.722 92.4689 120.42 91.5702C120.582 91.409 120.799 91.3107 121.029 91.2936C121.625 91.257 122.228 91.2936 122.858 91.2936C122.834 91.4436 122.824 91.5403 122.8 91.6269C121.4 97.0391 120.031 102.461 118.577 107.864C118.148 109.473 117.484 111.023 116.922 112.599C116.813 112.896 116.803 112.892 117.042 113.072C117.74 112.093 118.421 111.106 119.136 110.143C121.339 107.177 123.444 104.144 126.049 101.478C126.879 100.559 127.899 99.8225 129.042 99.3186C130.009 98.9011 131.099 98.8431 132.107 99.1553C133.159 99.4886 133.656 100.265 133.837 101.272C134.057 102.345 133.848 103.46 133.254 104.388C133.022 104.787 132.684 105.118 132.276 105.346C131.868 105.574 131.405 105.691 130.935 105.684C130.624 105.695 130.316 105.612 130.055 105.445C129.793 105.279 129.591 105.037 129.474 104.754C129.277 104.334 129.134 103.891 128.933 103.471C128.65 102.851 128.146 102.598 127.537 102.908C126.9 103.246 126.305 103.654 125.763 104.124C125.287 104.553 124.845 105.016 124.438 105.507C124.334 105.634 124.284 105.795 124.298 105.957C124.932 110.063 125.575 114.167 126.229 118.268C126.259 118.479 126.299 118.686 126.352 118.888C126.692 120.221 127.928 120.618 129.042 119.798C129.651 119.322 130.137 118.712 130.459 118.018C130.568 117.805 130.67 117.591 130.799 117.322" fill="#010101"/>
<path d="M84.4494 117.454C84.5686 117.527 84.6639 117.587 84.7627 117.637C85.1032 117.807 85.1441 118.004 84.9534 118.344C84.3595 119.532 83.5638 120.613 82.6003 121.54C81.1156 122.873 79.4027 123.313 77.4616 122.73C76.8826 122.571 76.3711 122.235 76.003 121.769C75.6349 121.304 75.43 120.735 75.4184 120.147C75.3571 119.307 75.5342 118.45 75.5921 117.597C75.5921 117.414 75.5921 117.104 75.5138 117.064C75.1732 116.921 75.1732 117.267 75.0813 117.441C74.4198 118.895 73.4507 120.196 72.2378 121.257C71.2165 122.108 69.9764 122.669 68.652 122.88C67.3008 123.131 65.9028 122.955 64.661 122.376C63.7517 121.957 62.9935 121.277 62.486 120.428C61.9785 119.579 61.7454 118.599 61.8175 117.617C61.9265 116.058 62.359 114.618 63.5202 113.442C64.4616 112.568 65.5784 111.897 66.7995 111.469C68.9517 110.612 71.2265 110.199 73.4808 109.699C74.5024 109.472 75.4967 109.259 76.5115 109.062C76.667 109.044 76.8111 108.973 76.9197 108.863C77.0282 108.752 77.0945 108.609 77.1075 108.456C77.3186 107.296 77.6217 106.156 77.7885 104.993C77.8885 104.221 77.756 103.437 77.4071 102.737C77.1764 102.217 76.8096 101.767 76.3438 101.43C75.878 101.094 75.3297 100.884 74.7544 100.821C72.9564 100.554 71.2469 100.767 69.8098 101.964C69.493 102.261 69.2385 102.615 69.0607 103.007C69.0232 103.08 69.0014 103.16 68.9967 103.242C68.9919 103.324 69.0042 103.406 69.0329 103.483C69.0616 103.56 69.106 103.631 69.1635 103.69C69.221 103.75 69.2903 103.798 69.3671 103.83C69.6629 104.003 69.9675 104.161 70.2798 104.303C71.5227 104.85 71.7679 106.09 70.8246 107.073C70.4296 107.504 69.9129 107.81 69.3399 107.953C68.6378 108.162 67.897 108.217 67.1707 108.113C65.5668 107.826 64.93 106.703 65.039 105.29C65.2092 103.044 66.6463 101.624 68.4647 100.531C71.0153 98.9945 73.8486 98.568 76.7908 98.8246C78.059 98.8919 79.2932 99.2504 80.3936 99.871C81.3068 100.379 82.0527 101.131 82.5432 102.04C83.0337 102.949 83.2485 103.976 83.1622 105C83.0514 106.271 82.8235 107.529 82.4811 108.759C81.7489 111.815 80.9487 114.858 80.2063 117.914C80.1195 118.354 80.1195 118.807 80.2063 119.247C80.2328 119.407 80.2927 119.561 80.3824 119.698C80.4721 119.834 80.5896 119.952 80.7276 120.042C80.8657 120.132 81.0212 120.194 81.1846 120.223C81.3481 120.252 81.5158 120.247 81.6774 120.21C82.041 120.153 82.3876 120.02 82.6938 119.82C83 119.62 83.2585 119.357 83.4516 119.05C83.7922 118.56 84.0884 118.031 84.4358 117.467M76.6035 110.519C76.5149 110.492 76.4843 110.472 76.4639 110.479C74.7612 110.952 73.0347 111.385 71.3559 111.919C70.302 112.204 69.3556 112.783 68.6316 113.585C68.1414 114.163 67.7825 114.837 67.5788 115.562C67.3751 116.286 67.3311 117.045 67.4499 117.787C67.4888 118.256 67.6765 118.7 67.9867 119.059C68.297 119.418 68.7142 119.672 69.1798 119.787C69.8513 119.961 70.5628 119.911 71.2026 119.647C72.5171 119.177 73.4161 118.227 74.1516 117.111C75.0765 115.648 75.7517 114.047 76.1506 112.372C76.314 111.752 76.4639 111.135 76.6205 110.519" fill="#010101"/>
<path d="M93.3237 114.099C93.3544 115.408 93.4804 116.688 94.1716 117.841C94.4885 118.388 94.9404 118.848 95.486 119.179C96.0315 119.51 96.6533 119.702 97.2943 119.738C98.3537 119.866 99.4288 119.713 100.407 119.294C101.769 118.678 102.641 117.601 103.291 116.335C103.649 115.638 103.945 114.905 104.238 114.175C104.333 113.935 104.459 113.872 104.691 113.929C105.219 114.059 105.75 114.182 106.271 114.332C106.363 114.359 106.489 114.539 106.468 114.605C105.535 117.478 104.282 120.157 101.503 121.794C99.8554 122.728 97.9504 123.134 96.0548 122.957C94.7759 122.905 93.5197 122.61 92.3566 122.087C90.9585 121.434 89.8149 120.355 89.0977 119.011C87.9297 116.865 87.8037 114.545 88.0761 112.206C88.3498 109.647 89.0624 107.151 90.184 104.824C91.117 102.931 92.3804 101.301 94.2363 100.182C96.1597 99.0502 98.4059 98.5591 100.638 98.7819C102.297 98.9052 103.873 99.2751 105.242 100.248C106.039 100.784 106.684 101.508 107.118 102.352C107.552 103.197 107.761 104.136 107.725 105.081C107.729 106.392 107.354 107.678 106.642 108.79C106.15 109.517 105.41 110.05 104.554 110.294C103.698 110.538 102.781 110.478 101.966 110.123C100.574 109.49 100.226 107.507 101.35 106.314C101.859 105.816 102.417 105.37 103.015 104.981C103.812 104.417 104.275 103.728 104.102 102.728C104.04 102.386 103.898 102.063 103.686 101.785C103.474 101.507 103.199 101.281 102.882 101.125C101.057 100.125 98.1355 100.105 96.5213 102.528C95.7323 103.763 95.1495 105.113 94.7948 106.527C94.3453 108.193 93.9537 109.86 93.6063 111.526C93.4327 112.359 93.4122 113.226 93.3237 114.075" fill="#010101"/>
<path d="M58.7183 117.377L59.4845 117.891C59.1133 118.511 58.766 119.13 58.3778 119.727C57.5469 120.99 56.5253 122.06 55.0303 122.57C53.5354 123.08 51.9655 123.103 50.5489 122.266C49.4183 121.6 49.0097 120.517 48.945 119.267C48.8803 118.017 49.2481 116.828 49.5409 115.634C51.012 109.662 52.4877 103.691 53.9679 97.7215C54.0634 97.2689 54.1249 96.81 54.1518 96.3485C54.18 96.1788 54.1401 96.005 54.0405 95.8634C53.9408 95.7218 53.7892 95.6234 53.6171 95.5887C53.0927 95.4687 52.5512 95.402 52.0132 95.312C51.9042 95.312 51.7918 95.2887 51.6284 95.2721C51.7544 94.7488 51.86 94.2489 52.0132 93.759C52.0404 93.6757 52.2652 93.6291 52.4048 93.6124C53.4741 93.4991 54.5502 93.4358 55.6126 93.2791C56.7898 93.1039 57.8504 92.4856 58.5685 91.5562C58.6368 91.4602 58.7297 91.3834 58.8379 91.3337C58.9461 91.284 59.0657 91.263 59.1848 91.2729C59.7842 91.2729 60.3869 91.2729 61.0544 91.2729C60.8398 92.166 60.6355 93.0025 60.4312 93.839C58.9056 100.029 57.3823 106.206 55.8612 112.372C55.4219 114.165 54.9827 115.961 54.5604 117.761C54.4845 118.102 54.4525 118.451 54.465 118.8C54.4923 119.89 55.2721 120.42 56.3414 120.094C56.959 119.887 57.4815 119.472 57.8159 118.924C58.1564 118.437 58.4118 117.924 58.7183 117.377Z" fill="#010101"/>
<path d="M212.146 105.82H212.582C212.725 104.761 212.827 103.718 213.014 102.684C213.355 100.835 213.733 98.9918 214.094 97.1456C214.16 96.8448 214.204 96.5395 214.223 96.2324C214.238 96.1228 214.23 96.0114 214.2 95.9048C214.17 95.7982 214.119 95.6985 214.049 95.6116C213.98 95.5246 213.893 95.4522 213.794 95.3986C213.695 95.345 213.586 95.3112 213.474 95.2993C212.997 95.2026 212.514 95.1426 211.993 95.0627C212.105 94.5861 212.214 94.1129 212.309 93.7296C213.508 93.5796 214.652 93.473 215.78 93.2864C216.839 93.1048 217.789 92.5352 218.436 91.6934C218.528 91.5542 218.658 91.4427 218.812 91.371C218.965 91.2993 219.135 91.2702 219.304 91.2868C219.845 91.3201 220.39 91.2868 221.007 91.2868C220.966 91.4667 220.939 91.62 220.905 91.7533C218.759 100.169 216.617 108.584 214.479 116.998C214.335 117.57 214.258 118.156 214.247 118.744C214.227 119.967 215.167 120.364 216.229 119.961C217.152 119.608 217.659 118.824 218.105 118.008C218.225 117.788 218.333 117.558 218.446 117.295L219.192 117.811C218.194 119.738 217.111 121.56 214.983 122.44C213.865 122.926 212.605 122.992 211.441 122.627C210.317 122.274 209.711 121.397 209.653 120.157C209.635 118.822 209.842 117.494 210.266 116.225C210.314 116.062 210.358 115.892 210.406 115.732C210.106 115.515 209.973 115.622 209.83 115.915C209.277 117.146 208.658 118.349 207.978 119.518C206.905 121.221 205.366 122.414 203.292 122.727C200.973 123.06 198.838 122.69 197.227 120.834C196.454 119.884 195.951 118.752 195.766 117.551C195.452 115.703 195.491 113.813 195.882 111.979C196.302 109.508 197.021 107.095 198.024 104.791C198.609 103.424 199.456 102.179 200.52 101.125C201.298 100.36 202.232 99.766 203.262 99.3811C204.291 98.9961 205.393 98.8294 206.493 98.8919C208.053 98.9418 209.429 99.3818 210.511 100.525C211.355 101.454 211.875 102.621 211.996 103.857C212.081 104.494 212.098 105.141 212.146 105.797M211.267 106.494H211.38C211.23 105.584 211.145 104.657 210.917 103.768C210.735 102.959 210.238 102.252 209.531 101.798C208.308 101.045 207.048 101.108 205.822 101.798C204.647 102.464 203.983 103.568 203.479 104.737C202.236 107.62 201.586 110.673 200.98 113.735C200.668 115.14 200.662 116.594 200.963 118.001C201.419 119.957 202.904 120.811 204.876 120.241C206.115 119.881 206.946 119.014 207.654 118.025C208.732 116.463 209.519 114.728 209.98 112.899C210.552 110.799 211.223 108.716 211.284 106.517" fill="#010101"/>
<path d="M134.494 122.4C134.811 121.14 135.117 119.917 135.427 118.691C137.189 111.703 138.949 104.715 140.709 97.725C140.814 97.3025 140.883 96.8722 140.917 96.4386C140.939 96.3374 140.939 96.2328 140.917 96.1316C140.895 96.0303 140.852 95.9347 140.79 95.8508C140.728 95.767 140.649 95.6968 140.557 95.6447C140.466 95.5927 140.364 95.56 140.259 95.5488C139.718 95.4188 139.159 95.3588 138.557 95.2588C138.686 94.7623 138.798 94.259 138.955 93.7758C138.982 93.6892 139.197 93.6258 139.33 93.6125C140.413 93.4892 141.506 93.4225 142.578 93.2526C143.698 93.0747 144.704 92.477 145.381 91.5863C145.453 91.4829 145.551 91.3998 145.665 91.3454C145.78 91.291 145.908 91.2672 146.035 91.2763C146.634 91.2997 147.237 91.2763 147.881 91.2763C146.658 96.1653 145.48 101.008 143.277 105.573L143.695 105.737C144.247 104.737 144.754 103.737 145.33 102.797C146.03 101.545 147.033 100.481 148.252 99.6979C150.295 98.4482 153.717 98.6015 155.502 100.274C156.632 101.334 157.16 102.677 157.398 104.15C157.879 107.123 157.296 109.992 156.516 112.839C155.991 114.914 155.1 116.884 153.884 118.661C153.128 119.769 152.14 120.708 150.986 121.416C149.832 122.124 148.538 122.584 147.189 122.766C144.84 123.1 142.609 122.823 140.566 121.56C140.201 121.334 139.825 121.126 139.439 120.937C138.472 120.467 137.879 120.567 137.109 121.307C137.028 121.365 136.959 121.438 136.909 121.523C136.452 122.64 135.502 122.49 134.525 122.4M152.379 105.82C152.331 105.26 152.311 104.697 152.222 104.154C152.152 103.753 152.038 103.361 151.882 102.984C151.691 102.431 151.309 101.961 150.803 101.653C150.297 101.345 149.697 101.218 149.106 101.294C148.226 101.387 147.411 101.79 146.811 102.427C145.493 103.736 144.536 105.352 144.032 107.123C143.263 109.619 142.616 112.152 141.962 114.681C141.652 115.759 141.437 116.861 141.318 117.974C141.246 118.568 141.369 119.169 141.67 119.69C141.972 120.21 142.436 120.623 142.994 120.867C144.489 121.577 146.787 121.053 147.911 119.83C148.773 118.903 149.419 117.803 149.805 116.608C150.445 114.608 150.993 112.609 151.558 110.582C152.022 109.031 152.287 107.429 152.348 105.813" fill="#010101"/>
<path d="M183.259 109.003L183.616 109.117C184.021 108.193 184.399 107.277 184.822 106.38C185.813 104.271 186.865 102.205 188.588 100.545C189.433 99.6483 190.581 99.0813 191.82 98.9486C193.59 98.8053 194.915 99.7585 195.113 101.475C195.327 103.364 194.942 105.141 193.58 106.59C193.291 106.922 192.921 107.177 192.504 107.331C192.087 107.485 191.637 107.533 191.196 107.47C190.882 107.459 190.583 107.331 190.361 107.112C190.14 106.892 190.012 106.599 190.005 106.29C189.936 105.764 189.95 105.227 189.923 104.694C189.923 104.514 189.902 104.331 189.879 104.151C189.78 103.484 189.443 103.251 188.84 103.548C188.339 103.793 187.887 104.124 187.505 104.524C186.293 105.804 185.489 107.344 184.74 108.91C183.657 111.173 183.17 113.609 182.588 116.015C182.087 118.071 181.6 120.128 181.103 122.184C181.079 122.266 181.049 122.346 181.011 122.424H175.511C175.695 121.644 175.869 120.891 176.053 120.138C177.292 114.992 178.546 109.85 179.768 104.701C179.914 104.087 179.983 103.458 179.972 102.828C179.955 101.875 179.274 101.428 178.324 101.665C177.609 101.868 177 102.33 176.622 102.958C176.312 103.408 176.056 103.898 175.76 104.404L175.045 103.921C175.872 102.195 176.86 100.588 178.576 99.6152C179.206 99.2445 179.906 99.005 180.635 98.9115C181.363 98.8181 182.103 98.8727 182.809 99.0719C183.258 99.1807 183.665 99.4172 183.977 99.7517C184.289 100.086 184.493 100.504 184.563 100.952C184.776 102.087 184.734 103.253 184.44 104.371C184.1 105.911 183.667 107.437 183.269 109.003" fill="#010101"/>
<path d="M171.565 117.364L172.308 117.897C171.412 119.514 170.503 121.12 168.82 122.073C167.036 123.073 165.16 123.286 163.307 122.243C162.136 121.577 161.765 120.44 161.72 119.194C161.669 117.818 162.126 116.528 162.459 115.195C163.399 111.512 164.349 107.82 165.276 104.124C165.371 103.728 165.408 103.32 165.384 102.914C165.333 101.844 164.608 101.368 163.552 101.681C162.92 101.885 162.382 102.303 162.037 102.861C161.696 103.351 161.427 103.86 161.107 104.414L160.304 103.86C160.849 103.041 161.349 102.211 161.925 101.434C162.865 100.165 164.084 99.2514 165.694 98.9848C167.125 98.7482 168.534 98.8048 169.723 99.7913C170.137 100.134 170.46 100.569 170.665 101.06C170.87 101.551 170.951 102.083 170.901 102.611C170.797 103.78 170.592 104.938 170.288 106.073C169.341 109.909 168.344 113.738 167.383 117.568C167.272 118.003 167.229 118.452 167.254 118.901C167.315 119.927 168.027 120.38 169.045 120.107C169.897 119.88 170.407 119.284 170.864 118.591C171.102 118.211 171.31 117.811 171.565 117.368" fill="#010101"/>
<path d="M170.138 96.6053C169.414 96.477 168.704 96.2886 168.013 96.0421C167.652 95.8723 167.337 95.6206 167.095 95.3081C166.852 94.9955 166.69 94.6309 166.62 94.2446C166.551 93.8583 166.576 93.4613 166.695 93.0866C166.813 92.7118 167.021 92.37 167.301 92.0896C168.255 91.0898 169.481 90.9098 170.771 91.0331C171.381 91.0746 171.976 91.2355 172.522 91.5064C174.112 92.3762 174.224 94.5957 172.784 95.7222C172.028 96.2689 171.101 96.5411 170.162 96.492L170.131 96.6053" fill="#010101"/>
</g>
<rect x="0.25" y="0.25" width="239.5" height="213.5" rx="1.75" stroke="#484848" stroke-width="0.5"/>
<defs>
<clipPath id="clip0_1571_1396">
<rect width="198" height="32" fill="white" transform="translate(23 91)"/>
</clipPath>
</defs>
</svg>
