<svg width="54" height="48" viewBox="0 0 54 48" fill="none" xmlns="http://www.w3.org/2000/svg">
<rect width="54" height="48" rx="24" fill="#2B2B2B"/>
<path d="M33.9906 16C32.1331 17.8575 29.8965 18.3412 27.7877 18.2377C25.679 18.1342 23.7269 17.4044 22.7072 16.8797L22.0547 18.1485C23.245 18.7609 25.3316 19.5455 27.718 19.6626C28.6508 19.7084 29.6335 19.5984 30.6152 19.3754L19 30.9906L20.0094 32L31.6246 20.3848C31.4016 21.3665 31.2916 22.3492 31.3374 23.282C31.4545 25.6684 32.2391 27.755 32.8515 28.9453L34.1203 28.2928C33.5956 27.2731 32.8658 25.321 32.7623 23.2123C32.6588 21.1035 33.1425 18.8669 35 17.0094L33.9906 16Z" fill="white"/>
</svg>
